<?xml version="1.0" encoding="UTF-8"?>
<svg xmlns="http://www.w3.org/2000/svg"
     width="1600" height="720"
     viewBox="0 0 1600 720"
     font-family="'DejaVu Sans', 'Liberation Sans', 'Noto Sans CJK SC', 'Source Han Sans SC', 'PingFang SC', 'Microsoft YaHei', sans-serif"
     font-size="12" fill="#222222">

  <rect x="0" y="0" width="1600" height="720" fill="#ffffff"/>

  <defs>
    <marker id="ah-grey" viewBox="0 0 10 10" refX="9" refY="5"
            markerWidth="6" markerHeight="6" orient="auto-start-reverse">
      <path d="M 0 1 L 9 5 L 0 9 z" fill="#5c5c5c"/>
    </marker>
    <marker id="ah-claim" viewBox="0 0 10 10" refX="9" refY="5"
            markerWidth="6" markerHeight="6" orient="auto-start-reverse">
      <path d="M 0 1 L 9 5 L 0 9 z" fill="#5BB8C7"/>
    </marker>
    <marker id="ah-evid" viewBox="0 0 10 10" refX="9" refY="5"
            markerWidth="6" markerHeight="6" orient="auto-start-reverse">
      <path d="M 0 1 L 9 5 L 0 9 z" fill="#F0A868"/>
    </marker>
    <marker id="ah-pos" viewBox="0 0 10 10" refX="9" refY="5"
            markerWidth="6" markerHeight="6" orient="auto-start-reverse">
      <path d="M 0 1 L 9 5 L 0 9 z" fill="#7FBF7F"/>
    </marker>
    <marker id="ah-neg" viewBox="0 0 10 10" refX="9" refY="5"
            markerWidth="6" markerHeight="6" orient="auto-start-reverse">
      <path d="M 0 1 L 9 5 L 0 9 z" fill="#D67373"/>
    </marker>
    <marker id="ah-mix" viewBox="0 0 10 10" refX="9" refY="5"
            markerWidth="6" markerHeight="6" orient="auto-start-reverse">
      <path d="M 0 1 L 9 5 L 0 9 z" fill="#A07F8F"/>
    </marker>

    <linearGradient id="grad-g" x1="0" x2="1" y1="0" y2="0">
      <stop offset="0" stop-color="#5BB8C7"/>
      <stop offset="1" stop-color="#F0A868"/>
    </linearGradient>

    <radialGradient id="faiss-top" cx="50%" cy="50%" r="50%">
      <stop offset="0" stop-color="#cfdcec"/>
      <stop offset="1" stop-color="#A8C8E0"/>
    </radialGradient>

    <!-- trainable badge: red filled circle with T -->
    <symbol id="badge-T" viewBox="-10 -10 20 20" overflow="visible">
      <circle r="9" fill="#E55A4D" stroke="#fff" stroke-width="1"/>
      <text y="3.5" text-anchor="middle" font-size="11" font-weight="700" fill="#fff" font-family="'DejaVu Sans', sans-serif">T</text>
    </symbol>
    <!-- frozen badge: blue filled circle with F -->
    <symbol id="badge-F" viewBox="-10 -10 20 20" overflow="visible">
      <circle r="9" fill="#3F8DCC" stroke="#fff" stroke-width="1"/>
      <text y="3.5" text-anchor="middle" font-size="11" font-weight="700" fill="#fff" font-family="'DejaVu Sans', sans-serif">F</text>
    </symbol>

    <!-- microphone icon: filled circle on stem -->
    <symbol id="ic-mic" viewBox="0 0 16 16" overflow="visible">
      <rect x="6" y="2" width="4" height="8" rx="2" fill="#1f6f7c"/>
      <line x1="8" y1="11" x2="8" y2="14" stroke="#1f6f7c" stroke-width="1.4"/>
      <line x1="5" y1="14" x2="11" y2="14" stroke="#1f6f7c" stroke-width="1.4"/>
    </symbol>

    <!-- tag icon: rotated rect with hole -->
    <symbol id="ic-tag" viewBox="0 0 16 16" overflow="visible">
      <path d="M 1 5 L 8 1 L 14 4 L 12 11 L 5 15 L 1 12 z"
            fill="none" stroke="#8a4f1d" stroke-width="1.4" stroke-linejoin="round"/>
      <circle cx="9" cy="6" r="1.2" fill="#8a4f1d"/>
    </symbol>
  </defs>

  <!-- ===== Column 1: Inputs ===== -->

  <g>
    <rect x="20" y="120" width="220" height="180" rx="12" ry="12"
          fill="#ffffff" stroke="#dcdcdc" stroke-width="1"/>
    <rect x="28" y="128" width="204" height="78" rx="8" ry="8"
          fill="#5BB8C7" fill-opacity="0.30"/>
    <use href="#ic-mic" x="34" y="138" width="16" height="16"/>
    <text x="58" y="151" font-size="11" fill="#1f6f7c" font-weight="600" font-family="'Noto Sans CJK SC', 'DejaVu Sans', sans-serif">主播话术 (claim)</text>
    <text x="40" y="180" font-size="11" fill="#1f6f7c" font-style="italic" font-family="'Noto Sans CJK SC', 'DejaVu Sans', sans-serif">这外套保暖性堪比羽绒服</text>

    <rect x="28" y="214" width="204" height="78" rx="8" ry="8"
          fill="#F0A868" fill-opacity="0.30"/>
    <use href="#ic-tag" x="34" y="222" width="16" height="16"/>
    <text x="58" y="235" font-size="11" fill="#8a4f1d" font-weight="600" font-family="'Noto Sans CJK SC', 'DejaVu Sans', sans-serif">商品事实 (evidence)</text>
    <text x="40" y="260" font-size="11" fill="#8a4f1d" font-style="italic" font-family="'Noto Sans CJK SC', 'DejaVu Sans', sans-serif">含绒量: 0%</text>
    <text x="40" y="276" font-size="11" fill="#8a4f1d" font-style="italic" font-family="'Noto Sans CJK SC', 'DejaVu Sans', sans-serif">主面料: 涤纶</text>
  </g>
  <text x="130" y="312" text-anchor="middle" font-size="11" font-style="italic"
        fill="#444" font-family="'Noto Sans CJK SC', 'DejaVu Sans', sans-serif">(p, a) = (外套#A1, 保暖性)</text>

  <g>
    <rect x="32" y="416" width="206" height="124" rx="10" ry="10"
          fill="#fafafa" stroke="#cfcfcf"/>
    <rect x="26" y="408" width="206" height="124" rx="10" ry="10"
          fill="#f3f3f3" stroke="#bdbdbd"/>
    <rect x="20" y="400" width="206" height="124" rx="10" ry="10"
          fill="#ffffff" stroke="#a8a8a8"/>
    <rect x="28" y="408" width="190" height="48" rx="6" ry="6"
          fill="#5BB8C7" fill-opacity="0.22"/>
    <rect x="28" y="462" width="190" height="48" rx="6" ry="6"
          fill="#F0A868" fill-opacity="0.22"/>
    <g transform="translate(36,418)">
      <rect width="28" height="6" fill="#5BB8C7"/>
      <rect y="10" width="48" height="6" fill="#5BB8C7"/>
      <rect y="20" width="36" height="6" fill="#5BB8C7"/>
    </g>
    <g transform="translate(36,472)">
      <rect width="32" height="6" fill="#F0A868"/>
      <rect y="10" width="56" height="6" fill="#F0A868"/>
      <rect y="20" width="44" height="6" fill="#F0A868"/>
    </g>
  </g>
  <text x="123" y="558" text-anchor="middle" font-size="11" font-style="italic" fill="#444">{(X<tspan baseline-shift="super" font-size="8">c</tspan><tspan baseline-shift="sub" font-size="8">i</tspan>, X<tspan baseline-shift="super" font-size="8">e</tspan><tspan baseline-shift="sub" font-size="8">i</tspan>, y<tspan baseline-shift="sub" font-size="8">i</tspan>, c<tspan baseline-shift="sub" font-size="8">i</tspan>)}<tspan baseline-shift="super" font-size="9">N</tspan><tspan baseline-shift="sub" font-size="9">i=1</tspan></text>
  <text x="123" y="574" text-anchor="middle" font-size="10" fill="#666">training mini-batch</text>

  <!-- ===== Column 2: Encoder ===== -->

  <path d="M 240 210 L 290 220" stroke="#5BB8C7" stroke-width="1.5" fill="none"
        marker-end="url(#ah-claim)" stroke-linecap="round"/>
  <path d="M 240 250 L 290 250" stroke="#F0A868" stroke-width="1.5" fill="none"
        marker-end="url(#ah-evid)" stroke-linecap="round"/>
  <path d="M 226 462 L 290 460" stroke="#9c9c9c" stroke-width="1.5" fill="none"
        marker-end="url(#ah-grey)" stroke-linecap="round"/>

  <g>
    <rect x="290" y="170" width="230" height="380" rx="12" ry="12"
          fill="#F5D5B0" stroke="#c9a878" stroke-width="1"/>
    <text x="405" y="200" text-anchor="middle" font-size="13" font-weight="600">Shared Encoder</text>
    <text x="405" y="218" text-anchor="middle" font-size="12" font-style="italic">BGE-large-zh-v1.5</text>
    <use href="#badge-F" x="500" y="195" width="16" height="16"/>

    <rect x="335" y="240" width="140" height="40" rx="8" ry="8"
          fill="#F4A6B5" stroke="#cf7d8c" stroke-width="1"/>
    <text x="405" y="266" text-anchor="middle" font-size="12" font-weight="600">LoRA (r=16)</text>
    <use href="#badge-T" x="468" y="240" width="16" height="16"/>

    <g transform="translate(310,300)">
      <rect width="190" height="6" rx="3" fill="#e7c8a4"/>
      <rect y="14" width="190" height="6" rx="3" fill="#e7c8a4"/>
      <rect y="28" width="190" height="6" rx="3" fill="#e7c8a4"/>
      <rect y="42" width="190" height="6" rx="3" fill="#e7c8a4"/>
      <rect y="56" width="190" height="6" rx="3" fill="#e7c8a4"/>
      <text x="-2" y="34" font-size="9" fill="#7d5a35">× 24</text>
    </g>

    <text x="405" y="500" text-anchor="middle" font-size="10" fill="#7d5a35"
          font-style="italic">parameters shared across</text>
    <text x="405" y="514" text-anchor="middle" font-size="10" fill="#7d5a35"
          font-style="italic">batches and the two streams</text>
  </g>

  <g transform="translate(530,205)">
    <text x="32" y="-8" text-anchor="middle" font-size="11" font-style="italic" fill="#1f6f7c">H<tspan baseline-shift="sub" font-size="9">c</tspan></text>
    <g fill="#5BB8C7">
      <rect x="0"  width="4" height="14"/>
      <rect x="6"  width="4" height="14"/>
      <rect x="12" width="4" height="14"/>
      <rect x="18" width="4" height="14"/>
      <rect x="24" width="4" height="14"/>
      <rect x="30" width="4" height="14"/>
      <rect x="36" width="4" height="14"/>
      <rect x="42" width="4" height="14"/>
    </g>
  </g>
  <g transform="translate(530,245)">
    <text x="32" y="22" text-anchor="middle" font-size="11" font-style="italic" fill="#8a4f1d">H<tspan baseline-shift="sub" font-size="9">e</tspan></text>
    <g fill="#F0A868">
      <rect x="0"  width="4" height="14"/>
      <rect x="6"  width="4" height="14"/>
      <rect x="12" width="4" height="14"/>
      <rect x="18" width="4" height="14"/>
      <rect x="24" width="4" height="14"/>
      <rect x="30" width="4" height="14"/>
      <rect x="36" width="4" height="14"/>
      <rect x="42" width="4" height="14"/>
    </g>
  </g>

  <g transform="translate(530,455)">
    <g fill="#a4c4ca" opacity="0.85">
      <rect x="0"  width="2.4" height="8"/>
      <rect x="3.6"  width="2.4" height="8"/>
      <rect x="7.2" width="2.4" height="8"/>
      <rect x="10.8" width="2.4" height="8"/>
      <rect x="14.4" width="2.4" height="8"/>
      <rect x="18" width="2.4" height="8"/>
      <rect x="21.6" width="2.4" height="8"/>
      <rect x="25.2" width="2.4" height="8"/>
    </g>
  </g>
  <g transform="translate(530,475)">
    <g fill="#cdb195" opacity="0.85">
      <rect x="0"  width="2.4" height="8"/>
      <rect x="3.6"  width="2.4" height="8"/>
      <rect x="7.2" width="2.4" height="8"/>
      <rect x="10.8" width="2.4" height="8"/>
      <rect x="14.4" width="2.4" height="8"/>
      <rect x="18" width="2.4" height="8"/>
      <rect x="21.6" width="2.4" height="8"/>
      <rect x="25.2" width="2.4" height="8"/>
    </g>
    <text x="0" y="22" font-size="9" fill="#666" font-style="italic">batch tokens</text>
  </g>

  <!-- ===== Column 3: Fusion ===== -->

  <path d="M 580 215 L 600 235" stroke="#5BB8C7" stroke-width="1.5" fill="none"
        marker-end="url(#ah-claim)" stroke-linecap="round"/>
  <path d="M 580 255 L 600 280" stroke="#F0A868" stroke-width="1.5" fill="none"
        marker-end="url(#ah-evid)" stroke-linecap="round"/>

  <g>
    <rect x="590" y="200" width="280" height="220" rx="14" ry="14"
          fill="#FFF2C5" stroke="#444" stroke-width="1.5"/>
    <text x="730" y="225" text-anchor="middle" font-size="13" font-weight="600">TwoStreamFusion (× N=2)</text>
    <use href="#badge-T" x="847" y="218" width="14" height="14"/>

    <circle cx="615" cy="270" r="6" fill="#5BB8C7"/>
    <line x1="615" y1="270" x2="635" y2="270" stroke="#5BB8C7" stroke-width="2"/>
    <circle cx="615" cy="350" r="6" fill="#F0A868"/>
    <line x1="615" y1="350" x2="635" y2="350" stroke="#F0A868" stroke-width="2"/>

    <circle cx="845" cy="270" r="6" fill="#F0A868"/>
    <line x1="825" y1="270" x2="845" y2="270" stroke="#F0A868" stroke-width="2"/>
    <circle cx="845" cy="350" r="6" fill="#5BB8C7"/>
    <line x1="825" y1="350" x2="845" y2="350" stroke="#5BB8C7" stroke-width="2"/>

    <path d="M 635 270 C 700 270, 760 350, 825 350"
          stroke="#5BB8C7" stroke-width="2" fill="none"/>
    <path d="M 635 350 C 700 350, 760 270, 825 270"
          stroke="#F0A868" stroke-width="2" fill="none"/>

    <circle cx="730" cy="310" r="14" fill="#ededed" stroke="#888" stroke-width="0.8"/>
    <text x="730" y="314" text-anchor="middle" font-size="12" font-style="italic" fill="#333">A</text>

    <text x="730" y="395" text-anchor="middle" font-size="10" font-style="italic" fill="#5c5c5c">bidirectional cross-attn (shared QKV)</text>
  </g>

  <!-- Layer-detail inset moved to ABOVE fusion (y=140..180) to avoid the bottom encode-pairs line -->
  <g>
    <rect x="590" y="138" width="280" height="42" rx="10" ry="10"
          fill="#EDEDED" stroke="#cfcfcf" stroke-dasharray="4,3"/>
    <text x="610" y="158" font-size="10" fill="#666" font-style="italic">Layer detail:</text>
    <g transform="translate(680,150)">
      <rect width="50" height="22" rx="6" fill="#ffffff" stroke="#bbb"/>
      <text x="25" y="15" text-anchor="middle" font-size="9">Self-Attn</text>
    </g>
    <text x="734" y="166" font-size="11">→</text>
    <g transform="translate(746,150)">
      <rect width="78" height="22" rx="6" fill="#ffffff" stroke="#bbb"/>
      <text x="39" y="15" text-anchor="middle" font-size="9">Cross-Attn</text>
    </g>
    <text x="828" y="166" font-size="11">→</text>
    <g transform="translate(840,150)">
      <rect width="26" height="22" rx="6" fill="#ffffff" stroke="#bbb"/>
      <text x="13" y="15" text-anchor="middle" font-size="9">FFN</text>
    </g>
    <!-- dashed connector to fusion main top -->
    <path d="M 730 180 L 730 200" stroke="#aaa" stroke-width="1" stroke-dasharray="3,3" fill="none"/>
  </g>

  <g>
    <text x="893" y="263" font-size="11" font-style="italic" fill="#1f6f7c">h̄<tspan baseline-shift="sub" font-size="9">c</tspan></text>
    <text x="893" y="356" font-size="11" font-style="italic" fill="#8a4f1d">h̄<tspan baseline-shift="sub" font-size="9">e</tspan></text>

    <path d="M 920 265 C 940 265, 940 305, 940 305" stroke="#5BB8C7" stroke-width="1.5" fill="none" marker-end="url(#ah-claim)"/>
    <path d="M 920 350 C 940 350, 940 315, 940 315" stroke="#F0A868" stroke-width="1.5" fill="none" marker-end="url(#ah-evid)"/>

    <rect x="935" y="295" width="160" height="32" rx="6" ry="6"
          fill="#ffffff" stroke="#999"/>
    <text x="1015" y="316" text-anchor="middle" font-size="10" font-style="italic">[u; v; u−v; u⊙v]</text>
  </g>

  <!-- ===== Column 4 top: heads & losses ===== -->

  <path d="M 1095 305 C 1130 305, 1140 135, 1180 135"
        stroke="#A07F8F" stroke-width="1.5" fill="none" marker-end="url(#ah-mix)"/>

  <g>
    <rect x="1180" y="110" width="130" height="50" rx="8" ry="8"
          fill="#FFF2C5" stroke="#bda93f" stroke-width="1"/>
    <text x="1245" y="138" text-anchor="middle" font-size="12" font-weight="600">Logistic Classifier</text>
    <use href="#badge-T" x="1297" y="119" width="14" height="14"/>
  </g>

  <path d="M 1310 135 L 1360 135" stroke="#5c5c5c" stroke-width="1.5" fill="none"
        marker-end="url(#ah-grey)"/>
  <text x="1370" y="139" font-size="13" font-style="italic">ŷ<tspan baseline-shift="sub" font-size="9">p,a</tspan></text>

  <g>
    <rect x="1180" y="180" width="380" height="58" rx="8" ry="8"
          fill="#EDEDED" stroke="#cfcfcf"/>
    <text x="1370" y="207" text-anchor="middle" font-size="12"><tspan font-weight="800" font-style="italic">L</tspan><tspan baseline-shift="sub" font-size="9" font-style="italic">CE</tspan><tspan font-style="italic"> = − c</tspan><tspan baseline-shift="sub" font-size="9" font-style="italic">p,a</tspan><tspan font-style="italic"> [ y log ŷ + (1 − y) log (1 − ŷ) ]</tspan></text>
    <text x="1370" y="226" text-anchor="middle" font-size="10" fill="#666">reliability-weighted binary cross-entropy</text>
  </g>

  <path d="M 1095 320 C 1130 320, 1140 295, 1180 295"
        stroke="#A07F8F" stroke-width="1.5" fill="none" marker-end="url(#ah-mix)"/>

  <g>
    <rect x="1180" y="270" width="130" height="50" rx="8" ry="8"
          fill="#FFF2C5" stroke="#bda93f" stroke-width="1"/>
    <text x="1245" y="298" text-anchor="middle" font-size="12" font-weight="600">MLP → L2-Norm</text>
    <use href="#badge-T" x="1297" y="279" width="14" height="14"/>
  </g>

  <path d="M 1310 295 L 1340 295" stroke="#A07F8F" stroke-width="1.5" fill="none" marker-end="url(#ah-mix)"/>
  <g transform="translate(1346,283)">
    <rect width="160" height="22" rx="4" fill="url(#grad-g)" stroke="#999"/>
    <text x="80" y="38" text-anchor="middle" font-size="11" fill="#444"><tspan font-style="italic">g</tspan><tspan baseline-shift="sub" font-size="9" font-style="italic">p,a</tspan> ∈ <tspan font-weight="700">R</tspan><tspan font-size="9" baseline-shift="super">256</tspan></text>
  </g>

  <g>
    <rect x="1180" y="60" width="380" height="36" rx="8" ry="8"
          fill="#EDEDED" stroke="#cfcfcf"/>
    <text x="1370" y="83" text-anchor="middle" font-size="13"><tspan font-weight="800" font-style="italic">L</tspan><tspan baseline-shift="sub" font-size="9" font-style="italic">total</tspan><tspan> = </tspan><tspan font-weight="800" font-style="italic">L</tspan><tspan baseline-shift="sub" font-size="9" font-style="italic">CE</tspan><tspan> + λ · </tspan><tspan font-weight="800" font-style="italic">L</tspan><tspan baseline-shift="sub" font-size="9" font-style="italic">CL</tspan></text>
  </g>
  <path d="M 1370 175 L 1370 100" stroke="#bbb" stroke-width="1" stroke-dasharray="3,3" fill="none"/>
  <path d="M 1556 555 L 1556 100" stroke="#bbb" stroke-width="1" stroke-dasharray="3,3" fill="none"/>

  <!-- ===== Column 4 bottom: retrieval & contrastive ===== -->

  <!-- Encode-all-training-pairs path: route below the inset and InfoNCE box, curving around -->
  <path d="M 580 500 C 700 600, 850 600, 940 540"
        stroke="#7d8a98" stroke-width="1.5" fill="none" stroke-dasharray="4,3" marker-end="url(#ah-grey)"/>
  <text x="745" y="615" text-anchor="middle" font-size="9" fill="#666" font-style="italic">encode all training pairs → G</text>

  <g>
    <rect x="940" y="455" width="140" height="92" fill="#A8C8E0" stroke="#7da4c2"/>
    <ellipse cx="1010" cy="547" rx="70" ry="11" fill="#A8C8E0" stroke="#7da4c2"/>
    <ellipse cx="1010" cy="455" rx="70" ry="11" fill="url(#faiss-top)" stroke="#7da4c2"/>
    <text x="1010" y="500" text-anchor="middle" font-size="13" font-weight="600" fill="#1d3a55">FAISS index G</text>
    <text x="1010" y="518" text-anchor="middle" font-size="10" fill="#1d3a55" font-style="italic">partitioned by (attribute, label)</text>
  </g>

  <path d="M 1426 305 C 1500 320, 1500 420, 1080 480"
        stroke="#A07F8F" stroke-width="1.2" stroke-dasharray="4,3" fill="none"/>
  <text x="1500" y="370" font-size="9" fill="#7d6373" font-style="italic" text-anchor="end">anchor g queries G</text>

  <g>
    <rect x="1100" y="430" width="190" height="60" rx="8" ry="8"
          fill="#ffffff" stroke="#7FBF7F" stroke-width="4"/>
    <rect x="1112" y="438" width="86" height="20" rx="3" fill="#5BB8C7" fill-opacity="0.30"/>
    <rect x="1112" y="462" width="86" height="20" rx="3" fill="#F0A868" fill-opacity="0.30"/>
    <text x="1252" y="450" text-anchor="middle" font-size="11" fill="#3a8a3a" font-weight="600">Pseudo-positive</text>
    <text x="1252" y="470" text-anchor="middle" font-size="11" font-style="italic" fill="#3a8a3a">g⁺</text>
    <text x="1252" y="484" text-anchor="middle" font-size="9" fill="#3a8a3a">same attr · same label</text>
  </g>

  <g>
    <rect x="1100" y="498" width="190" height="60" rx="8" ry="8"
          fill="#ffffff" stroke="#D67373" stroke-width="4"/>
    <rect x="1112" y="506" width="86" height="20" rx="3" fill="#5BB8C7" fill-opacity="0.30"/>
    <rect x="1112" y="530" width="86" height="20" rx="3" fill="#F0A868" fill-opacity="0.30"/>
    <text x="1252" y="518" text-anchor="middle" font-size="11" fill="#a23a3a" font-weight="600">Hard negative</text>
    <text x="1252" y="538" text-anchor="middle" font-size="11" font-style="italic" fill="#a23a3a">g⁻</text>
    <text x="1252" y="552" text-anchor="middle" font-size="9" fill="#a23a3a">same attr · opposite label</text>
  </g>

  <path d="M 1080 460 L 1100 460" stroke="#7FBF7F" stroke-width="1.5" fill="none" marker-end="url(#ah-pos)"/>
  <path d="M 1080 530 L 1100 530" stroke="#D67373" stroke-width="1.5" fill="none" marker-end="url(#ah-neg)"/>

  <g>
    <rect x="1310" y="565" width="270" height="68" rx="8" ry="8"
          fill="#EDEDED" stroke="#cfcfcf"/>
    <text x="1445" y="585" text-anchor="middle" font-size="12"><tspan font-weight="800" font-style="italic">L</tspan><tspan baseline-shift="sub" font-size="9" font-style="italic">CL</tspan><tspan font-style="italic"> = − log [ exp(g·g⁺/τ) /</tspan></text>
    <text x="1445" y="603" text-anchor="middle" font-size="10" font-style="italic">( exp(g·g⁺/τ) + Σ<tspan baseline-shift="sub" font-size="8">k</tspan> exp(g·g⁻<tspan baseline-shift="sub" font-size="8">k</tspan>/τ) ) ]</text>
    <text x="1445" y="624" text-anchor="middle" font-size="10" font-weight="700" fill="#a23a3a">attribute-blocked</text>
  </g>

  <path d="M 1290 470 C 1320 480, 1320 565, 1330 575"
        stroke="#7FBF7F" stroke-width="1.5" fill="none" marker-end="url(#ah-pos)"/>
  <path d="M 1290 538 C 1320 555, 1320 575, 1330 580"
        stroke="#D67373" stroke-width="1.5" fill="none" marker-end="url(#ah-neg)"/>

  <!-- ===== Far right: inference ===== -->

  <g>
    <rect x="1380" y="395" width="120" height="50" rx="8" ry="8"
          fill="#FFF2C5" stroke="#bda93f" stroke-width="1"/>
    <text x="1440" y="415" text-anchor="middle" font-size="12" font-weight="600">RKC (k-NN)</text>
    <text x="1440" y="432" text-anchor="middle" font-size="9" fill="#7c6a2c">retrieval-augmented</text>
  </g>
  <path d="M 1505 305 C 1530 350, 1448 380, 1438 395"
        stroke="#A07F8F" stroke-width="1.2" stroke-dasharray="4,3" fill="none"/>

  <!-- self-consistency gate (diamond) shifted right of RKC -->
  <g transform="translate(1480,510)">
    <polygon points="60,0 120,40 60,80 0,40" fill="#ffffff" stroke="#888" stroke-width="1.2"/>
    <text x="60" y="36" text-anchor="middle" font-size="10">|ŷ − ŷ<tspan baseline-shift="super" font-size="8">RKC</tspan>|</text>
    <text x="60" y="52" text-anchor="middle" font-size="10">&lt; δ ?</text>
  </g>
  <!-- gate inputs: ŷ from LRC -->
  <path d="M 1310 145 C 1430 200, 1540 460, 1540 510"
        stroke="#bbb" stroke-width="1" stroke-dasharray="3,3" fill="none"/>
  <text x="1554" y="180" font-size="9" fill="#888">ŷ</text>
  <!-- gate inputs: ŷ^RKC from RKC -->
  <path d="M 1500 420 C 1530 440, 1530 490, 1530 510"
        stroke="#bbb" stroke-width="1" stroke-dasharray="3,3" fill="none"/>

  <!-- gate output -->
  <path d="M 1570 540 C 1582 540, 1585 540, 1585 540" stroke="#5c5c5c" stroke-width="1.5" fill="none"/>
  <text x="1565" y="500" font-size="11" font-style="italic">ŷ<tspan baseline-shift="super" font-size="8">final</tspan><tspan baseline-shift="sub" font-size="8">t</tspan></text>
  <text x="1543" y="608" font-size="10" fill="#888" font-style="italic">otherwise → abstain</text>

  <!-- ===== Legend ===== -->

  <g transform="translate(20,650)">
    <rect width="220" height="58" rx="8" ry="8" fill="#EDEDED" stroke="#cfcfcf"/>
    <use href="#badge-T" x="20" y="20" width="14" height="14"/>
    <text x="34" y="24" font-size="10">trainable</text>
    <use href="#badge-F" x="105" y="20" width="14" height="14"/>
    <text x="119" y="24" font-size="10">frozen</text>
    <g transform="translate(20,38)">
      <rect width="14" height="10" fill="#ffffff" stroke="#7FBF7F" stroke-width="2"/>
      <text x="20" y="9" font-size="10" fill="#3a8a3a">positive</text>
    </g>
    <g transform="translate(105,38)">
      <rect width="14" height="10" fill="#ffffff" stroke="#D67373" stroke-width="2"/>
      <text x="20" y="9" font-size="10" fill="#a23a3a">hard-neg</text>
    </g>
  </g>
  <text x="34" y="705" font-size="9" fill="#666">arrow color = vector identity</text>

  <text x="405" y="700" text-anchor="middle" font-size="11" fill="#888">① Inputs    ② Shared encoder + LoRA</text>
  <text x="730" y="690" text-anchor="middle" font-size="11" fill="#888">③ TwoStreamFusion</text>
  <text x="1245" y="700" text-anchor="middle" font-size="11" fill="#888">④ Heads · contrastive learning · inference</text>

</svg>
